<?xml version="1.0" standalone="no"?>
<!DOCTYPE svg PUBLIC "-//W3C//DTD SVG 20010904//EN"
 "http://www.w3.org/TR/2001/REC-SVG-20010904/DTD/svg10.dtd">
<svg version="1.0" xmlns="http://www.w3.org/2000/svg"
 width="64.000000pt" height="64.000000pt" viewBox="0 0 64.000000 64.000000"
 preserveAspectRatio="xMidYMid meet">

<g transform="translate(0.000000,64.000000) scale(0.100000,-0.100000)"
fill="#000000" stroke="none">
<path d="M410 599 c-34 -14 -80 -58 -92 -89 -13 -34 -12 -103 2 -129 14 -27 4
-47 -16 -30 -8 7 -13 18 -10 25 3 7 -1 18 -9 24 -20 16 -61 -25 -45 -45 6 -8
17 -12 24 -9 7 3 19 -2 26 -11 14 -17 13 -17 -50 -15 -119 4 -230 -103 -200
-194 20 -63 98 -111 154 -95 72 21 142 135 133 216 -5 46 2 53 24 26 25 -29
68 -41 111 -30 48 12 81 -3 99 -44 9 -24 9 -33 -5 -54 -20 -30 -20 -35 -1 -35
37 0 47 83 14 124 -29 37 -61 48 -109 37 -51 -11 -122 21 -106 48 5 8 16 6 36
-4 64 -33 157 -5 200 61 28 42 27 121 -3 165 -39 59 -114 83 -177 58z m127
-39 c70 -44 69 -153 -3 -209 -105 -83 -252 38 -190 157 38 75 121 97 193 52z
m-257 -164 c0 -2 -8 -10 -17 -17 -16 -13 -17 -12 -4 4 13 16 21 21 21 13z
m-40 -104 c0 -5 -19 -17 -42 -27 -24 -10 -46 -20 -50 -23 -5 -2 -8 3 -8 12 0
8 12 22 28 30 30 17 72 21 72 8z m35 -2 c3 -5 -1 -10 -9 -10 -9 0 -16 5 -16
10 0 6 4 10 9 10 6 0 13 -4 16 -10z"/>
<path d="M475 560 c40 -14 62 -31 80 -66 10 -19 15 -23 15 -12 0 30 -52 78
-90 83 l-35 5 30 -10z"/>
<path d="M430 455 c-14 -7 -36 -18 -50 -24 l-25 -12 25 6 c14 2 40 5 58 5 21
0 32 5 32 14 0 22 -13 26 -40 11z"/>
</g>
</svg>
